# xmcd
#
# Track frame offsets: 
#        150
#        13985
#        28195
#        41842
#        53937
#        69177
#        81965
#        95750
#        104300
#        116845
#        127232
#        135565
#        150637
#        164102
#        178487
#        192472
#        204512
#        217245
#        229552
#        240600
#
# Disc length: 3387 seconds
#
# Revision: 0
# Processed by: cddbd v1.5.1PL2 Copyright (c) Steve Scherf et al.
# Submitted via: ExactAudioCopy v0.95b4
#
DISCID=360d3914
DTITLE=Willie Nelson - His Greatest Country Hits
DYEAR=1996
DGENRE=Country
TTITLE0=A Moment Isn't Very Long
TTITLE1=Will You Remember Mine
TTITLE2=Everything But You
TTITLE3=I Hope So
TTITLE4=Face Of A Fighter
TTITLE5=Any Old Arms Won't Do
TTITLE6=You'll Always Have Someone
TTITLE7=You Wouldn't Cross The Street To Say Goodbye
TTITLE8=I Can't Find The Time
TTITLE9=Healing Hands Of Time
TTITLE10=Things To Remember
TTITLE11=And So Will You My Love
TTITLE12=I Just Don't Understand
TTITLE13=So Much To Do
TTITLE14=Home Is Where You're Happy
TTITLE15=Is There Something On Your Mind
TTITLE16=Shelter Of Your Arms
TTITLE17=End Of Understanding
TTITLE18=Blame It On The Time
TTITLE19=Undo The Wrong
EXTD=
EXTT0=
EXTT1=
EXTT2=
EXTT3=
EXTT4=
EXTT5=
EXTT6=
EXTT7=
EXTT8=
EXTT9=
EXTT10=
EXTT11=
EXTT12=
EXTT13=
EXTT14=
EXTT15=
EXTT16=
EXTT17=
EXTT18=
EXTT19=
PLAYORDER=
